# xmcd
#
# Track frame offsets: 
#        150
#        16493
#        31633
#        52302
#        69112
#        85681
#        104375
#        128058
#        144179
#        162893
#
# Disc length: 2434 seconds
#
# Revision: 0
# Processed by: cddbd v1.5.2PL0 Copyright (c) Steve Scherf et al.
# Submitted via: ExactAudioCopy v1.0b3
#
DISCID=7509800a
DTITLE=Oliver Dragojevic - Tisina mora
DYEAR=1900
DGENRE=Pop
TTITLE0=Moje lipo
TTITLE1=Jel' mi sudjeno
TTITLE2=Konfidenca
TTITLE3=Do kraja vrimena
TTITLE4=Pridaj se
TTITLE5=U mom zagrljaju
TTITLE6=Zadnja karta
TTITLE7=Znan joj tilo
TTITLE8=S tobon ljubavi
TTITLE9=Tisina mora
EXTD=
EXTT0=
EXTT1=
EXTT2=
EXTT3=
EXTT4=
EXTT5=
EXTT6=
EXTT7=
EXTT8=
EXTT9=
PLAYORDER=
